<svg xmlns="http://www.w3.org/2000/svg" viewBox="0 0 224 224" width="224" height="224">
  <rect width="224" height="224" fill="white"/>
  <path d="M 0 0 L 0 223 L 223 223 L 223 0 Z" fill="black" />
  <path d="M 88 38 L 98 36 L 103 36 L 115 39 L 122 43 L 126 47 L 134 45 L 143 45 L 151 47 L 160 52 L 169 61 L 174 70 L 176 78 L 175 93 L 182 101 L 185 107 L 187 114 L 187 126 L 184 136 L 178 145 L 174 149 L 170 152 L 160 156 L 158 163 L 154 170 L 144 180 L 133 185 L 129 186 L 116 186 L 109 184 L 105 182 L 97 176 L 77 177 L 71 175 L 62 170 L 55 163 L 51 157 L 48 149 L 47 143 L 48 130 L 41 122 L 38 116 L 36 108 L 36 97 L 38 89 L 44 79 L 51 72 L 58 68 L 62 67 L 64 65 L 65 60 L 68 54 L 71 50 L 80 42 Z" fill="white" />
  <path d="M 129 132 L 91 154 L 87 154 L 62 140 L 60 138 L 57 137 L 57 145 L 61 155 L 65 160 L 72 165 L 82 168 L 89 168 L 97 166 L 128 148 L 129 146 Z" fill="black" />
  <path d="M 141 108 L 138 107 L 138 152 L 135 155 L 108 170 L 107 172 L 113 175 L 124 177 L 136 174 L 141 171 L 146 166 L 150 159 L 151 155 L 151 114 L 143 110 Z" fill="black" />
  <path d="M 110 92 L 99 98 L 94 102 L 95 122 L 105 127 L 107 129 L 112 131 L 127 123 L 129 121 L 129 101 L 113 92 Z" fill="black" />
  <path d="M 133 79 L 121 86 L 153 104 L 160 109 L 161 111 L 161 146 L 166 143 L 173 136 L 177 127 L 177 114 L 175 108 L 173 104 L 165 96 L 135 79 Z" fill="black" />
  <path d="M 62 77 L 58 79 L 53 83 L 50 87 L 46 96 L 46 109 L 47 112 L 52 121 L 57 126 L 89 144 L 95 141 L 97 139 L 102 137 L 100 135 L 81 125 L 66 116 L 63 113 L 62 111 Z" fill="black" />
  <path d="M 166 78 L 165 74 L 162 68 L 156 61 L 147 56 L 143 55 L 132 55 L 128 56 L 96 74 L 94 76 L 94 90 L 101 87 L 120 75 L 133 68 L 135 68 L 141 71 L 155 80 L 160 82 L 162 84 L 166 86 Z" fill="black" />
  <path d="M 111 48 L 104 46 L 96 46 L 91 47 L 83 51 L 77 57 L 74 62 L 72 68 L 73 109 L 74 109 L 76 111 L 85 116 L 85 71 L 91 66 L 116 52 L 115 50 Z" fill="black" />
</svg>