<svg xmlns="http://www.w3.org/2000/svg" viewBox="0 0 201 251" width="201" height="251">
  <rect width="201" height="251" fill="black"/>
  <path d="M 0 0 L 0 250 L 200 250 L 200 0 Z" fill="black" />
  <path d="M 124 91 L 126 93 L 114 99 L 112 99 L 111 98 L 107 97 L 96 97 L 90 99 L 83 103 L 78 108 L 73 118 L 72 122 L 72 132 L 75 140 L 80 147 L 70 157 L 49 173 L 60 161 L 64 154 L 64 143 L 61 137 L 60 132 L 60 121 L 63 110 L 70 99 L 79 91 L 87 87 L 94 85 L 109 85 L 119 88 Z" fill="white" />
  <path d="M 152 75 L 153 77 L 150 80 L 146 86 L 142 94 L 141 98 L 141 114 L 143 119 L 143 133 L 140 143 L 136 150 L 126 160 L 117 165 L 106 168 L 98 168 L 92 167 L 80 162 L 79 158 L 81 157 L 83 157 L 92 154 L 95 155 L 109 155 L 118 151 L 123 147 L 127 142 L 129 138 L 131 131 L 131 122 L 130 118 L 128 114 L 126 113 L 95 135 L 89 138 Z" fill="white" />
</svg>